<?xml version="1.0" encoding="utf-8"?>
<!-- Generator: Adobe Illustrator 14.0.0, SVG Export Plug-In  -->
<!DOCTYPE svg PUBLIC "-//W3C//DTD SVG 1.1//EN" "http://www.w3.org/Graphics/SVG/1.1/DTD/svg11.dtd" [
	<!ENTITY ns_flows "http://ns.adobe.com/Flows/1.0/">
]>
<svg version="1.1"
	 xmlns="http://www.w3.org/2000/svg" xmlns:xlink="http://www.w3.org/1999/xlink" xmlns:a="http://ns.adobe.com/AdobeSVGViewerExtensions/3.0/"
	 x="0px" y="0px" width="90px" height="90px" viewBox="0 0 90 90" enable-background="new 0 0 90 90" xml:space="preserve">
<defs>
</defs>
<path fill="#FFFFFF" d="M88.676,31.897c0.366-0.945,0.588-1.989,0.586-3.071c0.004-1.318-0.332-2.645-0.916-3.828
	c-0.586-1.189-1.397-2.25-2.379-3.232c-1.586-1.584-5.184-5.117-8.759-8.628c-3.569-3.505-7.12-6.989-8.517-8.386
	c-1.047-1.043-2.285-2.147-3.807-3.07c-1.511-0.91-3.381-1.676-5.58-1.682c-1.232-0.004-2.533,0.262-3.746,0.811
	c-1.216,0.546-2.334,1.353-3.34,2.36c-1.99,1.99-13.364,13.266-24.721,24.525C16.131,38.963,4.78,50.215,2.749,52.247l0,0
	c-0.932,0.927-1.652,2.026-2.104,3.187C0.188,56.588-0.001,57.783,0,58.909c0.008,2.077,0.594,3.928,1.363,5.567
	c0.779,1.64,1.77,3.084,2.811,4.328l0.11,0.133l0.122,0.123c0.781,0.776,2.15,2.209,3.496,3.619c1.354,1.42,2.682,2.812,3.524,3.657
	l0.004,0.004c0.792,0.788,2.147,2.159,3.835,3.418c0.851,0.632,1.794,1.246,2.883,1.748c1.085,0.493,2.344,0.902,3.839,0.909
	c2.853,0,10.374,0,13.162,0c0.845,0,1.745-0.048,2.696-0.23c1.432-0.266,2.902-0.875,4.252-1.771
	c1.366-0.896,2.674-2.042,4.193-3.56c0.993-0.994,3.763-3.845,7.465-7.668c5.543-5.728,13.121-13.578,19.558-20.242
	c3.215-3.331,6.147-6.365,8.396-8.687c1.123-1.16,2.076-2.143,2.806-2.894c0.727-0.747,1.244-1.275,1.451-1.482
	c0.893-0.893,1.689-1.891,2.297-3.067c0.038-0.074,0.067-0.157,0.104-0.233l0.497-0.497L88.676,31.897z M40.732,71.298
	c-1.74,1.749-2.862,2.56-3.515,2.874c-0.334,0.164-0.563,0.236-0.856,0.295c-0.29,0.055-0.664,0.088-1.211,0.088
	c-2.786,0-10.291,0-13.151,0c-0.003,0.006-0.279-0.041-0.686-0.248c-0.615-0.295-1.47-0.9-2.25-1.572
	c-0.79-0.674-1.515-1.395-2.076-1.955c-0.713-0.711-2.051-2.116-3.397-3.526c-1.277-1.337-2.547-2.667-3.453-3.578
	c-0.646-0.778-1.26-1.696-1.669-2.562c-0.429-0.895-0.615-1.709-0.607-2.203c0.002-0.273,0.042-0.452,0.099-0.602
	c0.062-0.15,0.14-0.291,0.347-0.502l-2.778-2.781l2.778,2.779c1.874-1.871,12.047-11.959,22.703-22.521l22.676,22.673
	c-2.524,2.61-4.902,5.069-6.914,7.146C43.757,68.211,41.505,70.523,40.732,71.298z"/>
</svg>
